<?xml version="1.0" encoding="utf-8"?>
<!-- Generator: Adobe Illustrator 28.0.0, SVG Export Plug-In . SVG Version: 6.00 Build 0)  -->
<svg version="1.1" id="Capa_1" xmlns="http://www.w3.org/2000/svg" xmlns:xlink="http://www.w3.org/1999/xlink" x="0px" y="0px"
	 viewBox="0 0 34.9 69.6" style="enable-background:new 0 0 34.9 69.6;" xml:space="preserve">
<style type="text/css">
	.st0{fill:#B59E7F;}
	.st1{fill:#EFB1CF;}
	.st2{fill:#F8EFF4;}
</style>
<path class="st0" d="M30.8,42.5C30.3,34,24,29.8,23.6,27.1c-0.3-2.8,1.7-6.2,1.7-6.2C29.1,17.5,29,9.9,29,9.9s-1-0.2-2.3-0.3
	c0.9-1.3,4.1-5.8,4.1-6.8c0-1.1-4.4-2.8-4.4-2.8l-1.1,9.5c-0.9,0-1.8,0.1-2.6,0.4c-2.1,0.7-3.7,5.3-4.3,7.2
	c-0.6-1.9-2.1-6.4-4.3-7.2c-0.8-0.3-1.8-0.4-2.6-0.4L10.4,0C10.4,0,6,1.6,6,2.8c0,1,3.2,5.5,4.1,6.8C8.8,9.7,7.8,9.9,7.8,9.9
	s-0.1,7.6,3.7,10.9c0,0,2,3.4,1.7,6.2C12.9,29.8,6.6,34,6,42.5C6,42.5,6.8,61,4,65.9c-0.7,1.2-1.3,3.8-1.1,3.9
	c0.8,0.6,4.6,0.1,5.9,0c0.6-0.1,1,0.2,1.8,0.5c0.8,0.3,2,0.7,4.3,0.5c1.2-0.1,2.8-0.8,3.6-0.8c2.3,0.7,3.9,0.3,5.5,0
	c1.4-0.3,2.7-0.7,4.2-0.2c3,1,5.8,0.6,6.6,0c0.2-0.1,0-1.4-1-3.6C30.6,59.6,30.8,42.5,30.8,42.5L30.8,42.5L30.8,42.5z"/>
<path class="st1" d="M34.5,68.6L34.5,68.6c-0.1-0.4-0.3-1-0.6-1.6C34.2,67.6,34.4,68.2,34.5,68.6L34.5,68.6z M33.7,66.3
	c-3.1-6.6-2.8-23.7-2.8-23.7l0,0C30.8,42.5,30.6,59.7,33.7,66.3L33.7,66.3z"/>
<path class="st1" d="M28.1,2.7L28.1,2.7L28.1,2.7L28.1,2.7z M28.1,2.7L28.1,2.7L28.1,2.7L28.1,2.7z M28.1,2.7L28.1,2.7L28.1,2.7
	L28.1,2.7z M28.1,2.7L28.1,2.7L28.1,2.7L28.1,2.7z M28.1,2.6L28.1,2.6L28.1,2.6L28.1,2.6z M28.1,2.6L28.1,2.6L28.1,2.6L28.1,2.6z
	 M28.1,2.6L28.1,2.6L28.1,2.6L28.1,2.6z M28.1,2.6L28.1,2.6L28.1,2.6L28.1,2.6z M28.1,2.6L28.1,2.6L28.1,2.6L28.1,2.6z M28.1,2.6
	L28.1,2.6L28.1,2.6L28.1,2.6z M28.1,2.6L28.1,2.6L28.1,2.6L28.1,2.6z M28.1,2.6C28.1,2.6,28.1,2.6,28.1,2.6
	C28.1,2.6,28.1,2.6,28.1,2.6L28.1,2.6z M28.1,2.6L28.1,2.6L28.1,2.6L28.1,2.6z M28.1,2.6L28.1,2.6L28.1,2.6L28.1,2.6z M28.1,2.6
	L28.1,2.6L28.1,2.6L28.1,2.6z M28.1,2.6L28.1,2.6L28.1,2.6L28.1,2.6z M28.1,2.6L28.1,2.6L28.1,2.6L28.1,2.6z M28.1,2.6L28.1,2.6
	L28.1,2.6L28.1,2.6z M28.1,2.6L28.1,2.6L28.1,2.6L28.1,2.6z M28.1,2.6L28.1,2.6L28.1,2.6L28.1,2.6z M28.1,2.6L28.1,2.6L28.1,2.6
	L28.1,2.6z M28.1,2.6L28.1,2.6L28.1,2.6L28.1,2.6z M28.1,2.6L28.1,2.6L28.1,2.6L28.1,2.6z M28.1,2.6L28.1,2.6L28.1,2.6L28.1,2.6z
	 M28.1,2.6L28.1,2.6L28.1,2.6L28.1,2.6z M28.1,2.6L28.1,2.6L28.1,2.6L28.1,2.6z M28.1,2.6L28.1,2.6C28.1,2.6,28.1,2.6,28.1,2.6
	L28.1,2.6z M28.1,2.6L28.1,2.6L28.1,2.6L28.1,2.6z M28.1,2.6L28.1,2.6L28.1,2.6L28.1,2.6z M28.1,2.6L28.1,2.6L28.1,2.6L28.1,2.6z
	 M28.1,2.6L28.1,2.6L28.1,2.6L28.1,2.6z M28.1,2.5L28.1,2.5L28.1,2.5L28.1,2.5z M28.1,2.5L28.1,2.5L28.1,2.5L28.1,2.5z M28.1,2.5
	L28.1,2.5z M28.1,2.5L28.1,2.5L28.1,2.5L28.1,2.5z M28.1,2.5L28.1,2.5L28.1,2.5L28.1,2.5z M28.1,2.5L28.1,2.5z M28.1,2.5L28.1,2.5z
	 M28.1,2.5L28.1,2.5z M28.1,2.5L28.1,2.5z M28.1,2.5L28.1,2.5z M28.1,2.5L28.1,2.5z"/>
<path class="st2" d="M34.5,68.6c-0.9-1.2-1.8-2-2.9-2.1c-0.3,0-0.9-0.1-1.8-0.1c-1.5-2.6-1.4-13.1-1.4-21.8c0-7.2-3.7-11.4-5.6-14.4
	c-0.1-0.1,0.7-1.1,0.6-1.2c0,0,0,0,0,0c-0.1,0-0.4,0.2-0.6,0.4c-0.2,0.2-0.5,0.4-0.6,0.4c0,0,0,0,0,0c-0.1-0.3,0.9-1.5,0.8-1.7
	c0,0,0,0,0,0c-0.1,0-0.7,0.6-1.3,1.2c-0.6,0.6-1.2,1.2-1.3,1.2c0,0,0,0,0,0c-0.1-0.2,2.2-3.1,2.2-3.3c-0.6-2.6-1.3-4.9-1.3-4.9
	l-2.4-0.1c-0.5,0.1-1,0.1-1.5,0.1c-2.3,0-3.8-0.9-3.8-0.9c0.2,0.1,0.6,0.2,0.9,0.2c1.8,0,4.8-1,4.8-1h2c6.9-2.9,4.6-9.6,4.6-9.6
	s2-5,2.9-7.4C29,2.5,29,1.8,28.9,1.1c0.9,0.5,1.8,1,1.9,1.5l0,0l0,0l0,0l0,0l0,0l0,0l0,0l0,0l0,0l0,0l0,0l0,0l0,0c0,0,0,0,0,0
	c0,0,0,0,0,0l0,0l0,0l0,0l0,0l0,0l0,0l0,0l0,0l0,0l0,0l0,0l0,0l0,0c0,0,0,0,0,0l0,0l0,0l0,0l0,0l0,0l0,0l0,0l0,0l0,0l0,0l0,0
	c0,0,0,0,0,0l0,0v0l0,0v0l0,0c0,0.3-0.4,1.1-0.9,2c-0.2,0.4-0.5,0.8-0.8,1.3c-0.9,1.4-2,2.9-2.5,3.6l0,0C28,9.6,29,9.8,29,9.8l0,0
	v0.1l0,0c0,0.8-0.1,7.7-3.7,10.9c0,0-1.7,2.9-1.7,5.5c0,0.2,0,0.4,0,0.7c0.3,2.8,6.7,6.9,7.2,15.5c0,0-0.3,17.1,2.8,23.7l0,0
	c0.1,0.2,0.2,0.5,0.3,0.7c0.3,0.6,0.4,1.2,0.6,1.6l0,0L34.5,68.6z"/>
<path class="st2" d="M9.1,66.4c0.1-0.4,0.2-0.9,0.3-1.5c0.8-4.4,2.2-15.6,2.2-15.6S11,63.2,10.6,65.4c-0.1,0.3-0.1,0.7-0.2,1
	C10,66.4,9.5,66.4,9.1,66.4L9.1,66.4L9.1,66.4z"/>
<path class="st2" d="M17.8,66.3c0.2-3.1,0.4-11.7,0.4-11.7s0,8.1,0.3,11.7C18.3,66.3,18.1,66.3,17.8,66.3L17.8,66.3L17.8,66.3z"/>
</svg>
