<?xml version="1.0" encoding="utf-8"?>
<!-- Generator: Adobe Illustrator 28.0.0, SVG Export Plug-In . SVG Version: 6.00 Build 0)  -->
<svg version="1.1" id="Capa_1" xmlns="http://www.w3.org/2000/svg" xmlns:xlink="http://www.w3.org/1999/xlink" x="0px" y="0px"
	 viewBox="0 0 242.1 35.6" style="enable-background:new 0 0 242.1 35.6;" xml:space="preserve">
<style type="text/css">
	.st0{fill-rule:evenodd;clip-rule:evenodd;fill:#643D1A;}
	.st1{fill:#643D1A;}
</style>
<path class="st0" d="M96.7,30.9c0.4-0.3,1.8-1.9,3.5-3.3c3.8-3,8.7-5.9,9.8-10.8c1-4.5-1.4-7.9-4.4-9.1c-5.4-2.3-7.8,2.7-8.9,3.8
	c-0.5-0.5-0.9-1.3-1.5-1.9C94.8,9,94,8.3,93.3,7.9c-6.9-4.2-16.7,7.4-4.1,16.6l5.8,4.6C95.6,29.7,96.2,30.5,96.7,30.9L96.7,30.9z"/>
<g>
	<path class="st1" d="M4.8,21.2c0.4-0.7,0.8-1.5,1.3-2.2c0.5-0.7,1.1-1.4,1.8-2c0-1.3,0.2-2.5,0.6-3.6c0.4-1.1,0.9-2.2,1.5-3.2
		c0.6-1,1.3-1.9,2.1-2.7c0.8-0.8,1.6-1.6,2.5-2.2C15.8,4.6,17,4,18.4,3.5c1.3-0.5,2.7-0.8,4.2-1s2.9-0.2,4.3-0.2
		c1.4,0.1,2.8,0.3,4,0.6c1,0.2,1.9,0.6,2.8,1c0.9,0.4,1.7,1,2.3,1.7c0.6,0.7,1.1,1.5,1.4,2.4c0.3,0.9,0.3,1.9,0,3.1
		c-0.2,1-0.7,1.9-1.4,2.7c-0.7,0.8-1.5,1.5-2.5,2.1c1.7,1,3,2.4,3.8,4.1c0.5,1,0.8,2.1,0.9,3.2s0.1,2.2-0.1,3.2s-0.6,2.1-1.1,3.1
		c-0.5,1-1.2,1.9-2,2.6c-0.8,0.8-1.7,1.4-2.6,1.9c-1,0.5-2,0.9-3,1.1c-1.1,0.3-2.1,0.4-3.2,0.4c-1.1,0-2.2,0-3.2-0.2
		c-1.1-0.2-2.1-0.5-3.1-1c-1-0.5-1.8-1.2-2.4-2.1c-0.7,0.7-1.5,1.4-2.4,1.9c-0.9,0.5-1.9,0.9-2.9,1.1c-1.1,0.2-2.2,0.2-3.3-0.1
		c-1.1-0.2-2.1-0.7-2.9-1.4C5,33.2,4.4,32.3,4,31.2c-0.4-1.1-0.6-2.2-0.6-3.4c0-1.2,0.1-2.3,0.3-3.5C4,23.2,4.4,22.1,4.8,21.2z
		 M31.6,9.6c-1.1,0.6-2,1.3-2.8,2.2c-0.8,0.9-1.5,1.9-2,3c0.6-0.2,1.3-0.3,2.1-0.3s1.5,0.2,2.2,0.3c1.1-0.9,1.7-2.1,1.9-3.5
		c0.1-0.9,0-1.7-0.3-2.5c-0.3-0.7-0.7-1.4-1.3-2c-0.5-0.6-1.2-1.1-1.9-1.6c-0.7-0.4-1.5-0.8-2.2-1c-1.7-0.5-3.4-0.7-5.2-0.5
		c-1.8,0.2-3.4,0.7-5,1.6c-1.7,1-3.1,2.3-4.2,4C11.8,11.2,11.2,13,11,15c0.7-0.3,1.4-0.5,2.1-0.6c0.7-0.1,1.4-0.1,2.2,0
		c1,0.2,1.8,0.5,2.5,1.1c0.1,0.1,0.2,0.2,0.3,0.3c0.2,0.2,0.2,0.3,0.2,0.4c-0.1,0.1-0.2,0.1-0.3,0.1c-0.2,0-0.4-0.1-0.7-0.1
		c-1.2-0.1-2.3,0-3.3,0.3c-1,0.2-2,0.6-2.9,1.2c0.2,1.1,0.5,2.1,1,3.1c0.5,1,1.2,1.8,2,2.5c0.2,0.2,0.1,0.3,0,0.3
		c-0.2,0-0.3,0.1-0.4,0.1c-0.4,0-0.8,0-1.3-0.1c-0.5-0.1-1-0.3-1.4-0.6c-0.4-0.3-0.8-0.6-1.1-0.9C9.5,21.7,9.2,21.4,9,21
		c-0.2-0.4-0.4-0.8-0.6-1.3c-1.2,1.2-2.1,2.6-2.7,4.2c-0.6,1.6-0.9,3.2-0.7,4.9c0.1,1.1,0.5,2.2,1.1,3.1s1.6,1.5,2.8,1.6
		c1.2,0.2,2.2-0.1,3.1-0.6c0.9-0.6,1.7-1.4,2.3-2.3c0.6-1,1.2-2.1,1.7-3.2c0.5-1.1,1-2.2,1.4-3.4c0.4-1.1,0.8-2.3,1.3-3.5
		c0.4-1.2,0.9-2.3,1.4-3.4c0.4-0.9,0.9-1.8,1.5-2.8c0.6-1,1.3-1.9,2-2.7c0.8-0.8,1.6-1.5,2.6-2c0.9-0.5,2-0.8,3.1-0.9
		c0.4,0,0.8,0,1.2,0.1c0.4,0.1,0.8,0.2,1.1,0.4c0.1,0.1,0.2,0.1,0.2,0.2C31.9,9.5,31.8,9.6,31.6,9.6z M21.5,26.4
		c-0.4,0.9-0.9,1.8-1.4,2.6c-0.5,0.8-1,1.6-1.6,2.4c0.6,1.3,1.7,2.1,3.1,2.5c1.4,0.4,3,0.3,4.8-0.3c1.4-0.5,2.5-1.2,3.5-2.2
		c0.9-1,1.7-2.2,2.2-3.5s0.9-2.7,1.1-4.2c0.2-1.5,0.1-3-0.3-4.4c-0.3-1-0.9-1.7-1.6-2.3c-0.4,0.1-0.8,0.2-1.3,0.3
		c-0.5,0.1-0.9,0.1-1.4,0.2c-0.5,0-0.9,0-1.4-0.1c-0.4-0.1-0.9-0.3-1.2-0.6l-1.3,3.1C23.6,22.1,22.5,24.3,21.5,26.4z M26.6,16.1
		c0,0.1,0.2,0.1,0.4,0.2c0.2,0,0.5,0,0.7,0c0.3,0,0.5,0,0.8-0.1c0.3,0,0.4-0.1,0.5-0.1c-0.1,0-0.3-0.1-0.5-0.1s-0.5-0.1-0.7-0.1
		c-0.2,0-0.5,0-0.7,0C26.9,15.9,26.7,16,26.6,16.1z"/>
	<path class="st1" d="M53.4,14.3c1.6,0,2.8,0.3,3.6,0.9c0.8,0.6,1.3,1.3,1.4,2.2c0.1,0.9,0,1.8-0.5,2.8s-1.3,2-2.3,2.9
		c-1,0.9-2.3,1.7-3.8,2.3c-1.5,0.6-3.3,1-5.2,1.2c0.1,0.7,0.2,1.4,0.4,2.1c0.2,0.7,0.5,1.2,0.9,1.7s0.9,0.9,1.5,1.2
		c0.6,0.3,1.3,0.4,2.1,0.4c0.7,0,1.4-0.1,2.2-0.4c0.8-0.3,1.5-0.7,2.2-1.2c0.7-0.5,1.5-1.2,2.1-2c0.7-0.8,1.3-1.8,1.8-2.9
		c0.1-0.2,0.3-0.4,0.4-0.5c0.2-0.1,0.3-0.1,0.4,0c0.1,0,0.2,0.2,0.3,0.3s0,0.4-0.1,0.6c-0.5,1.2-1.1,2.2-1.9,3.2
		c-0.8,1-1.7,1.8-2.7,2.5c-1,0.7-2.1,1.2-3.3,1.6c-1.2,0.4-2.4,0.6-3.7,0.6c-2.3,0-4-0.5-5.3-1.4c-1.3-1-2.2-2.2-2.6-3.6
		c-0.4-1.5-0.4-3-0.1-4.7s1.1-3.2,2.1-4.7c1.1-1.5,2.4-2.7,4.1-3.6C49.4,14.8,51.3,14.3,53.4,14.3z M52.8,15.7
		c-0.8,0-1.6,0.3-2.3,0.9c-0.7,0.6-1.4,1.3-1.9,2.2c-0.5,0.9-1,1.9-1.3,3.1c-0.3,1.1-0.5,2.2-0.6,3.4c1-0.1,2-0.4,2.9-0.9
		c0.9-0.5,1.7-1.1,2.3-1.8c0.7-0.7,1.2-1.4,1.6-2.2c0.4-0.8,0.7-1.5,0.8-2.2c0.1-0.7,0-1.2-0.2-1.7C53.9,15.9,53.4,15.7,52.8,15.7z"
		/>
	<path class="st1" d="M73.3,2.9c-1.6,4.6-3,8.7-4.2,12.3c-0.5,1.5-1.1,3.1-1.6,4.6c-0.5,1.5-1,2.9-1.4,4.1c-0.4,1.2-0.8,2.2-1,3
		s-0.4,1.2-0.5,1.4c-0.4,1.1-0.5,1.9-0.4,2.4c0.1,0.5,0.4,0.7,0.8,0.7c0.2,0,0.6-0.1,1-0.3c0.4-0.2,0.9-0.5,1.3-1s0.9-1.1,1.4-1.8
		c0.5-0.8,1-1.7,1.4-2.8c0.1-0.2,0.2-0.4,0.4-0.5c0.2-0.1,0.3-0.1,0.4,0c0.1,0,0.2,0.2,0.3,0.3c0.1,0.2,0,0.4,0,0.6
		c-0.9,2.3-2,4.2-3.5,5.6c-1.5,1.4-3.1,2.1-4.8,2.1c-0.8,0-1.5-0.2-2.1-0.5c-0.6-0.3-1-0.8-1.3-1.4C59.1,31,59,30.1,59,29.1
		c0.1-1,0.3-2.2,0.8-3.5l6.4-18.4c0.5-1.6,1.2-2.7,2.1-3.4c0.9-0.7,2.2-1,3.8-1H73.3z"/>
</g>
<g>
	<g>
		<path class="st1" d="M115.3,21.1c0.3-0.7,0.8-1.4,1.3-2.1c0.5-0.7,1.1-1.3,1.7-1.9c0-1.2,0.2-2.5,0.6-3.7c0.4-1.2,1-2.3,1.6-3.3
			c1.9-2.8,4.3-4.9,7.2-6.1c2.9-1.3,6.1-1.8,9.6-1.6c0.9,0.1,1.9,0.2,3.1,0.5c1.1,0.3,2.2,0.6,3.3,1.2c1.1,0.5,2,1.2,2.8,2
			c0.8,0.8,1.3,1.8,1.5,2.9c0.2,1.1,0.2,2.1-0.1,3.1c-0.3,0.9-0.8,1.8-1.4,2.5c-0.6,0.8-1.4,1.4-2.2,2c-0.9,0.6-1.8,1.1-2.7,1.5
			c0.6,0.6,1,1.3,1.4,2c0.4,0.7,0.7,1.5,0.9,2.3c0.2,0.8,0.4,1.6,0.6,2.5c0.2,0.9,0.3,1.7,0.5,2.5c0.1,0.6,0.2,1.2,0.4,1.8
			c0.1,0.6,0.3,1.2,0.6,1.8s0.7,1,1.1,1.4c0.5,0.4,1.2,0.6,2,0.6c0.2,0,0.3,0.1,0.3,0.3c-0.1,0.2-0.3,0.5-0.5,0.8s-0.6,0.5-1,0.8
			c-0.4,0.2-0.8,0.4-1.3,0.4c-1.3,0.2-2.4,0-3.3-0.5s-1.6-1.4-2.1-2.5c-0.5-1.1-0.9-2.4-1-3.8c-0.2-1.5-0.2-3-0.1-4.7
			c0.1-0.8,0.1-1.6,0.1-2.5s-0.3-1.7-0.8-2.4c-0.6,0.1-1.2,0.1-1.7,0.1c-0.6,0-1.2-0.1-1.8-0.3c-0.7,1.7-1.3,3.1-1.9,4.2
			c-0.5,1.2-1.1,2.3-1.6,3.4c-0.5,1-1,2-1.6,2.9s-1.2,1.9-2,2.7c-0.8,0.8-1.7,1.6-2.6,2.2c-0.9,0.6-2,1-3.1,1.2
			c-1.1,0.2-2.2,0.2-3.3,0c-1.1-0.2-2.1-0.7-2.9-1.4c-0.9-0.7-1.5-1.7-1.9-2.7c-0.4-1.1-0.6-2.2-0.6-3.4c0-1.2,0.1-2.3,0.4-3.5
			C114.5,23.2,114.9,22.1,115.3,21.1z M142.2,9.6c-1.3,0.7-2.4,1.6-3.2,2.8c-0.8,1.1-1.6,2.3-2.2,3.6c1.1,0,2.2,0.3,3.2,0.9
			c0.6-0.3,1.1-0.8,1.5-1.3c0.7-0.9,1.2-1.8,1.5-2.9c0.2-1.1,0.3-2.1,0-3.1c-0.2-1-0.7-2-1.4-2.8c-0.7-0.9-1.7-1.5-2.9-2.1
			c-1.7-0.7-3.5-1.1-5.4-1c-1.9,0.1-3.7,0.6-5.3,1.5c-1.8,1-3.2,2.3-4.3,4.1c-1.1,1.7-1.8,3.6-2,5.6c0.7-0.3,1.4-0.5,2.1-0.6
			c0.7-0.1,1.5-0.1,2.2,0.1c0.4,0.1,0.9,0.2,1.3,0.4c0.4,0.2,0.8,0.4,1.2,0.7c0.1,0.1,0.2,0.1,0.3,0.3c0.1,0.1,0.2,0.2,0.2,0.3
			c0,0.2-0.2,0.3-0.5,0.2c-0.3,0-0.5-0.1-0.6-0.1c-2.1-0.2-4.2,0.3-6.2,1.4c0.1,1,0.4,1.9,0.9,2.8c0.4,0.9,1,1.7,1.6,2.4
			c0.1,0.2,0.3,0.3,0.4,0.4c0.2,0.1,0.1,0.3-0.1,0.3c-0.2,0.1-0.3,0.1-0.6,0.1c-0.2,0-0.4,0-0.6,0c-1-0.1-1.9-0.5-2.8-1.3
			c-0.4-0.3-0.7-0.7-1-1.2c-0.3-0.4-0.5-0.9-0.7-1.3c-1.1,1.2-2,2.6-2.6,4.1c-0.6,1.5-0.8,3.1-0.6,4.7c0.1,1.1,0.5,2.2,1.1,3.1
			s1.6,1.5,2.8,1.6c1.2,0.2,2.2-0.1,3.1-0.6c0.9-0.6,1.6-1.4,2.2-2.3c0.7-1,1.3-2.1,1.7-3.2s0.9-2.2,1.4-3.4
			c0.4-1.1,0.9-2.3,1.3-3.5c0.4-1.2,0.9-2.3,1.4-3.4c0.4-0.9,1-1.8,1.6-2.8s1.3-1.9,2-2.7c0.8-0.8,1.6-1.5,2.6-2
			c0.9-0.5,2-0.8,3.1-0.9c0.8-0.1,1.6,0.1,2.3,0.5C142.3,9.3,142.4,9.5,142.2,9.6z M136,17.8c0.2,0.1,0.5,0.1,0.9,0.1
			c0.4,0,0.7-0.1,0.8-0.1c-0.1-0.1-0.3-0.2-0.6-0.3c-0.3-0.1-0.6-0.2-0.8-0.2L136,17.8z"/>
		<path class="st1" d="M160.9,14.6c2,0.2,3.5,0.8,4.5,1.8c1,1,1.6,2.3,1.8,3.8c0.2,1.5,0,3-0.6,4.7c-0.6,1.7-1.4,3.2-2.6,4.5
			c-1.1,1.4-2.5,2.5-4.2,3.3c-1.7,0.9-3.5,1.2-5.4,1c-2-0.1-3.5-0.7-4.5-1.8c-1-1.1-1.6-2.3-1.8-3.8c-0.2-1.5,0-3,0.6-4.7
			c0.6-1.7,1.4-3.2,2.6-4.5c1.1-1.4,2.5-2.5,4.2-3.3C157.1,14.8,158.9,14.4,160.9,14.6z M156.3,32.3c0.8-0.1,1.6-0.6,2.3-1.4
			c0.7-0.8,1.3-1.9,1.7-3.1c0.5-1.2,0.8-2.5,1-3.9c0.2-1.4,0.3-2.7,0.2-3.9c-0.1-1.2-0.3-2.2-0.8-2.9c-0.4-0.8-1.1-1.1-1.9-1
			c-0.8,0.1-1.6,0.5-2.3,1.4c-0.7,0.9-1.3,1.9-1.7,3.1s-0.8,2.6-1,4c-0.2,1.4-0.3,2.7-0.2,3.9c0.1,1.2,0.3,2.2,0.8,2.9
			C154.8,32,155.5,32.4,156.3,32.3z"/>
		<path class="st1" d="M190.4,25.5c0.1-0.2,0.2-0.4,0.4-0.5c0.2-0.1,0.3-0.1,0.5,0c0.1,0,0.2,0.2,0.3,0.3c0.1,0.2,0,0.4,0,0.6
			c-0.9,2.3-2,4.2-3.5,5.6c-1.5,1.4-3.1,2.1-4.8,2.1c-1.1,0-2-0.3-2.7-0.8c-0.7-0.6-1-1.4-1.1-2.6V30c-0.7,0.9-1.6,1.7-2.6,2.5
			s-2.1,1.1-3.4,1.1c-1.4,0-2.4-0.5-3.2-1.4c-0.8-0.9-1.2-2.1-1.3-3.5c-0.1-1.4,0.1-2.9,0.5-4.5c0.5-1.6,1.3-3.1,2.4-4.5
			c1.1-1.4,2.6-2.6,4.3-3.5c1.7-0.9,3.8-1.4,6.2-1.4c0.3,0,0.6,0,0.8,0c0.2,0,0.5,0,0.7,0.1l2.6-7.6c0.5-1.6,1.2-2.7,2.1-3.4
			c0.9-0.7,2.2-1,3.9-1h1.1c-1.6,4.6-3,8.7-4.3,12.3c-0.5,1.5-1.1,3.1-1.6,4.6c-0.5,1.5-1,2.9-1.4,4.1c-0.4,1.2-0.8,2.2-1,3
			s-0.4,1.2-0.5,1.4c-0.4,1.1-0.5,1.9-0.4,2.4c0.1,0.5,0.4,0.7,0.8,0.7c0.2,0,0.6-0.1,1-0.3c0.4-0.2,0.8-0.5,1.3-1s0.9-1.1,1.4-1.8
			C189.5,27.5,190,26.6,190.4,25.5z M175.3,31.5c0.4,0,0.7-0.1,1.1-0.3c0.4-0.2,0.7-0.5,1-0.9s0.7-0.8,1-1.3c0.3-0.5,0.6-1,0.9-1.5
			c0.6-1.1,1.2-2.5,1.7-3.9l2.2-6.4c-0.1-0.2-0.2-0.3-0.4-0.5s-0.5-0.3-1-0.3c-0.9,0-1.8,0.4-2.6,1.1c-0.8,0.7-1.6,1.7-2.2,2.8
			s-1.2,2.3-1.7,3.6s-0.8,2.5-1,3.6c-0.2,1.1-0.2,2.1-0.1,2.8C174.4,31.1,174.8,31.5,175.3,31.5z"/>
		<path class="st1" d="M204.6,25.5c0.1-0.2,0.2-0.4,0.4-0.5c0.2-0.1,0.3-0.1,0.4,0c0.1,0,0.2,0.2,0.3,0.3c0.1,0.2,0,0.4,0,0.6
			c-0.9,2.3-2,4.2-3.5,5.6c-1.5,1.4-3.1,2.1-4.8,2.1c-0.8,0-1.5-0.2-2.1-0.5c-0.6-0.3-1-0.8-1.3-1.4c-0.3-0.6-0.4-1.5-0.3-2.5
			s0.3-2.2,0.8-3.5l2-5.8c0.2-0.5,0.3-1.1,0.3-1.6s-0.1-1.1-0.3-1.5c-0.1-0.2-0.3-0.4-0.4-0.6c-0.1-0.2-0.3-0.3-0.4-0.5l-0.5-0.5
			c-0.2,0.6-0.4,1.3-0.6,2.2s-0.6,1.8-0.9,2.9c-0.3,1-0.7,2-1,3.1c-0.4,1-0.7,1.9-1,2.7c-0.2,0.4-0.3,0.6-0.5,0.8
			c-0.2,0.1-0.3,0.2-0.5,0.1c-0.1-0.1-0.2-0.2-0.3-0.4c0-0.2,0-0.5,0.1-0.9c0.7-2,1.4-3.8,1.9-5.4c0.5-1.6,0.9-2.9,1.2-4
			c0.3-1.2,0.6-2.3,0.8-3.2c0.8,0.6,1.6,1.2,2.4,1.7c0.6,0.5,1.3,1.1,2,1.7c0.7,0.6,1.2,1.2,1.6,1.8c0.6,0.8,0.9,1.6,1,2.3
			c0.1,0.7-0.1,1.5-0.4,2.5l-1.9,5.5c-0.4,1.1-0.5,1.9-0.4,2.4s0.4,0.7,0.8,0.7c0.2,0,0.6-0.1,1-0.3c0.4-0.2,0.8-0.5,1.3-1
			s1-1.1,1.5-1.8C203.7,27.5,204.2,26.6,204.6,25.5z"/>
		<path class="st1" d="M214.8,25.5c0.1-0.2,0.2-0.4,0.4-0.5c0.2-0.1,0.3-0.1,0.4,0c0.1,0,0.2,0.2,0.3,0.3c0.1,0.2,0,0.4,0,0.6
			c-0.9,2.3-2,4.2-3.5,5.6c-1.5,1.4-3.1,2.1-4.8,2.1c-0.8,0-1.5-0.2-2.1-0.5c-0.6-0.3-1-0.8-1.3-1.4c-0.3-0.6-0.4-1.5-0.3-2.5
			s0.3-2.2,0.8-3.5l2.7-7.8c0.3-0.9,0.9-1.6,1.6-2.2s1.6-0.8,2.6-0.8h2.5c-0.7,2.1-1.4,4.1-2,5.9c-0.3,0.8-0.5,1.6-0.8,2.3
			c-0.3,0.8-0.5,1.5-0.8,2.2c-0.2,0.7-0.5,1.3-0.6,1.9s-0.3,1-0.4,1.2c-0.4,1.1-0.5,1.9-0.4,2.4s0.4,0.7,0.8,0.7
			c0.2,0,0.6-0.1,1-0.3c0.4-0.2,0.8-0.5,1.3-1s1-1.1,1.5-1.8C213.9,27.5,214.4,26.6,214.8,25.5z M215.1,12.2c-0.6,0.6-1.3,1-2.1,1.1
			c-0.8,0.1-1.4-0.2-1.9-0.7c-0.5-0.6-0.8-1.3-0.7-2.1s0.3-1.6,0.9-2.2c0.6-0.6,1.3-1,2.1-1.1c0.8-0.1,1.4,0.2,1.9,0.7
			c0.5,0.6,0.8,1.3,0.7,2.1C216,10.8,215.7,11.5,215.1,12.2z"/>
	</g>
</g>
</svg>
